<?xml version="1.0" encoding="UTF-8" standalone="no"?><!DOCTYPE svg PUBLIC "-//W3C//DTD SVG 1.1//EN" "http://www.w3.org/Graphics/SVG/1.1/DTD/svg11.dtd"><svg width="100%" height="100%" viewBox="0 0 1519 673" version="1.1" xmlns="http://www.w3.org/2000/svg" xmlns:xlink="http://www.w3.org/1999/xlink" xml:space="preserve" xmlns:serif="http://www.serif.com/" style="fill-rule:evenodd;clip-rule:evenodd;stroke-linejoin:round;stroke-miterlimit:2;"><g><path d="M3.641,2.863l114.041,-0l-0,166.528l-36.026,0l0,-137.183l-41.989,0l-0,137.183l-36.026,0l0,-166.528Z" style="fill:#fff;fill-rule:nonzero;"/><path d="M145.357,2.863l33.64,-0l-0,61.792l-2.863,44.614l2.386,0l50.101,-106.406l33.64,-0l0,166.528l-33.64,0l0,-61.792l2.863,-44.614l-2.385,-0l-50.102,106.406l-33.64,0l0,-166.528Z" style="fill:#fff;fill-rule:nonzero;"/><path d="M367.952,99.726l-41.99,0l-0,69.665l-36.026,0l0,-166.528l36.026,-0l-0,67.518l41.99,-0l-0,-67.518l36.025,-0l0,166.528l-36.025,0l-0,-69.665Z" style="fill:#fff;fill-rule:nonzero;"/><path d="M633.252,172.254c-22.268,0 -38.69,-7.555 -49.267,-22.665c-10.577,-15.11 -15.865,-36.264 -15.865,-63.462c-0,-27.198 5.288,-48.352 15.865,-63.462c10.577,-15.11 26.999,-22.665 49.267,-22.665c22.267,0 38.69,7.555 49.267,22.665c10.577,15.11 15.865,36.264 15.865,63.462c0,27.198 -5.288,48.352 -15.865,63.462c-10.577,15.11 -27,22.665 -49.267,22.665Zm-0,-28.868c10.179,0 17.217,-3.777 21.114,-11.332c3.897,-7.555 5.845,-18.093 5.845,-31.612l0,-28.868c0,-13.361 -1.948,-23.818 -5.845,-31.373c-3.897,-7.555 -10.935,-11.333 -21.114,-11.333c-10.179,0 -17.218,3.778 -21.114,11.333c-3.897,7.555 -5.846,18.012 -5.846,31.373l0,29.106c0,13.361 1.949,23.819 5.846,31.374c3.896,7.555 10.935,11.332 21.114,11.332Z" style="fill:#fff;fill-rule:nonzero;"/></g><path d="M426.404,140.046l11.929,0c2.703,-3.022 5.248,-6.959 7.634,-11.81c2.386,-4.851 4.414,-10.974 6.084,-18.37c1.67,-7.396 2.982,-16.144 3.936,-26.244c0.955,-10.1 1.432,-21.83 1.432,-35.19l-0,-45.569l89.467,-0l0,137.183l15.985,0l-0,65.132l-32.924,0l0,-35.787l-70.619,0l-0,35.787l-32.924,0l-0,-65.132Zm85.888,-108.792l-23.619,-0l-0,22.426c-0,11.77 -0.358,22.228 -1.074,31.374c-0.716,9.145 -1.71,17.177 -2.982,24.096c-1.272,6.919 -2.823,12.923 -4.652,18.013c-1.829,5.089 -3.857,9.384 -6.084,12.883l38.411,0l0,-108.792Z" style="fill:#fff;fill-rule:nonzero;"/><path d="M97.164,261.957l1.909,-46.523l-2.147,0l-31.016,85.65l-31.015,-85.65l-2.147,0l1.908,46.523l0,74.198l-31.015,0l0,-166.528l42.229,-0l20.517,56.066l1.909,-0l20.518,-56.066l39.365,-0l0,166.528l-31.015,0l0,-74.198Z" style="fill:#333;fill-rule:nonzero;"/><path d="M150.606,169.627l33.64,-0l-0,61.792l-2.863,44.614l2.385,0l50.102,-106.406l33.64,-0l-0,166.528l-33.64,0l0,-61.792l2.863,-44.614l-2.386,-0l-50.101,106.406l-33.64,0l-0,-166.528Z" style="fill:#333;fill-rule:nonzero;"/><path d="M356.023,339.018c-22.268,0 -38.769,-7.515 -49.505,-22.546c-10.737,-15.03 -16.105,-36.224 -16.105,-63.581c0,-27.357 5.368,-48.551 16.105,-63.581c10.736,-15.031 27.237,-22.546 49.505,-22.546c8.589,-0 16.183,1.153 22.784,3.459c6.601,2.307 12.287,5.527 17.058,9.663c4.772,4.135 8.709,9.145 11.81,15.03c3.102,5.885 5.527,12.486 7.277,19.802l-33.401,8.112c-0.955,-3.976 -2.068,-7.635 -3.34,-10.975c-1.273,-3.34 -2.903,-6.203 -4.891,-8.588c-1.988,-2.386 -4.454,-4.255 -7.396,-5.607c-2.943,-1.352 -6.482,-2.028 -10.617,-2.028c-9.702,-0 -16.581,3.777 -20.637,11.332c-4.056,7.555 -6.084,18.013 -6.084,31.374l0,29.106c0,13.361 2.028,23.819 6.084,31.374c4.056,7.555 10.935,11.332 20.637,11.332c8.271,0 14.275,-2.545 18.013,-7.634c3.737,-5.09 6.481,-11.611 8.231,-19.564l33.401,8.112c-1.75,7.316 -4.175,13.917 -7.277,19.802c-3.101,5.885 -7.038,10.935 -11.81,15.15c-4.771,4.214 -10.457,7.435 -17.058,9.662c-6.601,2.227 -14.195,3.34 -22.784,3.34Z" style="fill:#333;fill-rule:nonzero;"/><path d="M442.866,336.155l-0,-166.528l106.406,-0l-0,29.345l-70.62,0l0,38.173l68.234,-0l0,29.345l-68.234,0l0,40.32l70.62,-0l-0,29.345l-106.406,0Z" style="fill:#333;fill-rule:nonzero;"/><path d="M669.755,261.957l1.908,-46.523l-2.147,0l-31.015,85.65l-31.016,-85.65l-2.147,0l1.909,46.523l-0,74.198l-31.016,0l0,-166.528l42.229,-0l20.518,56.066l1.908,-0l20.518,-56.066l39.366,-0l-0,166.528l-31.015,0l-0,-74.198Z" style="fill:#333;fill-rule:nonzero;"/><path d="M813.856,336.155l-10.497,-40.081l-45.569,-0l-10.259,40.081l-36.264,0l45.092,-166.528l50.579,-0l45.091,166.528l-38.173,0Zm-32.208,-131.934l-1.908,-0l-16.224,62.985l34.356,-0l-16.224,-62.985Z" style="fill:#333;fill-rule:nonzero;"/><path d="M945.791,266.49l-41.99,0l-0,69.665l-36.026,0l0,-166.528l36.026,-0l-0,67.518l41.99,-0l-0,-67.518l36.025,-0l0,166.528l-36.025,0l-0,-69.665Z" style="fill:#333;fill-rule:nonzero;"/><path d="M1085.84,198.972l-0,137.183l-35.787,0l-0,-137.183l-47.954,0l-0,-29.345l131.695,-0l0,29.345l-47.954,0Z" style="fill:#333;fill-rule:nonzero;"/><path d="M1243.3,336.155l-10.497,-40.081l-45.569,-0l-10.259,40.081l-36.264,0l45.092,-166.528l50.578,-0l45.092,166.528l-38.173,0Zm-32.208,-131.934l-1.909,-0l-16.223,62.985l34.355,-0l-16.223,-62.985Z" style="fill:#333;fill-rule:nonzero;"/><g><path d="M3.641,336.391l114.041,-0l-0,166.528l-36.026,0l0,-137.183l-41.989,-0l-0,137.183l-36.026,0l0,-166.528Z" style="fill:#fff;fill-rule:nonzero;"/><path d="M227.428,365.736l-26.243,-0l-0,28.629c-0,14.633 -0.557,27.318 -1.67,38.054c-1.114,10.736 -2.704,19.921 -4.772,27.556c-2.068,7.634 -4.453,13.917 -7.157,18.848c-2.704,4.93 -5.567,8.907 -8.589,11.929c-4.931,4.93 -10.219,8.429 -15.866,10.497c-5.646,2.068 -12.684,3.102 -21.114,3.102l-6.919,-0l0,-30.777l16.462,-0c2.545,-2.704 4.812,-6.243 6.8,-10.617c1.988,-4.374 3.698,-9.901 5.129,-16.581c1.432,-6.68 2.545,-14.673 3.34,-23.977c0.796,-9.305 1.193,-20.319 1.193,-33.044l0,-52.964l95.432,-0l-0,166.528l-36.026,0l0,-137.183Z" style="fill:#fff;fill-rule:nonzero;"/><path d="M288.505,336.391l33.639,-0l0,61.792l-2.862,44.614l2.385,0l50.102,-106.406l33.64,-0l-0,166.528l-33.64,0l-0,-61.792l2.863,-44.614l-2.386,-0l-50.102,106.406l-33.639,0l-0,-166.528Z" style="fill:#fff;fill-rule:nonzero;"/><path d="M484.856,505.782c-13.361,0 -24.693,-2.227 -33.998,-6.68c-9.305,-4.454 -17.058,-10.18 -23.261,-17.178l20.756,-22.904c4.772,5.567 10.378,9.901 16.82,13.003c6.441,3.102 13.002,4.652 19.683,4.652c8.429,0 14.712,-1.869 18.847,-5.606c4.136,-3.738 6.203,-8.708 6.203,-14.911l0,-2.625c0,-6.68 -1.709,-11.531 -5.129,-14.553c-3.42,-3.022 -8.947,-4.533 -16.581,-4.533l-22.904,-0l0,-28.868l22.904,-0c6.521,-0 11.292,-1.829 14.314,-5.488c3.022,-3.658 4.533,-8.748 4.533,-15.269l0,-2.147c0,-13.519 -7.555,-20.279 -22.665,-20.279c-7.157,-0 -13.36,1.471 -18.609,4.414c-5.249,2.942 -10.179,6.958 -14.792,12.048l-20.279,-20.995c7.157,-7.635 15.19,-13.599 24.097,-17.894c8.907,-4.294 19.643,-6.441 32.208,-6.441c18.609,-0 32.963,3.976 43.063,11.929c10.1,7.952 15.15,19.643 15.15,35.071c0,9.861 -3.141,17.933 -9.424,24.216c-6.282,6.282 -14.672,10.298 -25.17,12.048l0,1.431c5.408,0.318 10.378,1.313 14.911,2.983c4.533,1.67 8.47,3.976 11.81,6.918c3.34,2.943 5.964,6.561 7.873,10.856c1.909,4.294 2.863,9.304 2.863,15.03c0,7.953 -1.511,15.11 -4.533,21.472c-3.022,6.363 -7.277,11.77 -12.764,16.224c-5.487,4.453 -12.128,7.913 -19.921,10.378c-7.794,2.465 -16.462,3.698 -26.005,3.698Z" style="fill:#fff;fill-rule:nonzero;"/></g><g><path d="M65.609,672.546c-22.267,-0 -38.769,-7.515 -49.505,-22.546c-10.736,-15.03 -16.104,-36.224 -16.104,-63.581c0,-27.357 5.368,-48.551 16.104,-63.582c10.736,-15.03 27.238,-22.545 49.505,-22.545c8.589,-0 16.184,1.153 22.785,3.459c6.6,2.306 12.286,5.527 17.058,9.662c4.772,4.136 8.708,9.146 11.81,15.031c3.101,5.885 5.527,12.486 7.276,19.802l-33.401,8.112c-0.954,-3.977 -2.067,-7.635 -3.34,-10.975c-1.272,-3.34 -2.903,-6.203 -4.891,-8.589c-1.988,-2.386 -4.453,-4.254 -7.396,-5.606c-2.942,-1.352 -6.481,-2.028 -10.616,-2.028c-9.703,-0 -16.582,3.777 -20.638,11.332c-4.055,7.555 -6.083,18.013 -6.083,31.373l-0,29.107c-0,13.361 2.028,23.818 6.083,31.373c4.056,7.555 10.935,11.333 20.638,11.333c8.27,-0 14.275,-2.545 18.012,-7.635c3.738,-5.089 6.482,-11.611 8.231,-19.563l33.401,8.111c-1.749,7.317 -4.175,13.918 -7.276,19.803c-3.102,5.884 -7.038,10.934 -11.81,15.149c-4.772,4.215 -10.458,7.436 -17.058,9.663c-6.601,2.227 -14.196,3.34 -22.785,3.34Z" style="fill:#333;fill-rule:nonzero;"/><path d="M200.821,672.546c-22.267,-0 -38.689,-7.555 -49.266,-22.665c-10.577,-15.11 -15.866,-36.264 -15.866,-63.462c0,-27.198 5.289,-48.352 15.866,-63.462c10.577,-15.11 26.999,-22.665 49.266,-22.665c22.268,-0 38.69,7.555 49.267,22.665c10.577,15.11 15.866,36.264 15.866,63.462c-0,27.198 -5.289,48.352 -15.866,63.462c-10.577,15.11 -26.999,22.665 -49.267,22.665Zm0,-28.868c10.18,-0 17.218,-3.778 21.115,-11.333c3.896,-7.555 5.845,-18.092 5.845,-31.612l-0,-28.868c-0,-13.36 -1.949,-23.818 -5.845,-31.373c-3.897,-7.555 -10.935,-11.332 -21.115,-11.332c-10.179,-0 -17.217,3.777 -21.114,11.332c-3.897,7.555 -5.845,18.013 -5.845,31.373l-0,29.107c-0,13.361 1.948,23.818 5.845,31.373c3.897,7.555 10.935,11.333 21.114,11.333Z" style="fill:#333;fill-rule:nonzero;"/><path d="M298.4,640.338l28.153,-0l4.533,-11.452l-54.874,-125.731l37.935,-0l24.335,59.167l8.827,28.63l0.716,-0l7.634,-28.63l20.995,-59.167l36.264,-0l-52.01,137.183c-2.068,5.567 -4.334,10.219 -6.799,13.957c-2.466,3.737 -5.209,6.759 -8.231,9.066c-3.022,2.306 -6.482,3.936 -10.379,4.89c-3.896,0.955 -8.31,1.432 -13.241,1.432l-23.858,-0l0,-29.345Z" style="fill:#333;fill-rule:nonzero;"/><path d="M498.381,532.5l-26.243,-0l-0,28.629c-0,14.633 -0.557,27.318 -1.67,38.054c-1.114,10.736 -2.704,19.921 -4.772,27.556c-2.068,7.634 -4.454,13.917 -7.157,18.847c-2.704,4.931 -5.567,8.907 -8.589,11.929c-4.931,4.931 -10.219,8.43 -15.866,10.498c-5.646,2.068 -12.684,3.101 -21.114,3.101l-6.919,0l0,-30.776l16.462,-0c2.545,-2.704 4.811,-6.243 6.8,-10.617c1.988,-4.374 3.698,-9.901 5.129,-16.581c1.432,-6.681 2.545,-14.673 3.34,-23.978c0.795,-9.304 1.193,-20.319 1.193,-33.043l0,-52.964l95.432,-0l-0,166.528l-36.026,-0l0,-137.183Z" style="fill:#333;fill-rule:nonzero;"/><path d="M649.163,595.485l1.909,-46.523l-2.147,-0l-31.015,85.65l-31.016,-85.65l-2.147,-0l1.909,46.523l-0,74.198l-31.016,-0l0,-166.528l42.229,-0l20.518,56.066l1.908,-0l20.518,-56.066l39.366,-0l-0,166.528l-31.016,-0l0,-74.198Z" style="fill:#333;fill-rule:nonzero;"/><path d="M793.265,669.683l-10.497,-40.081l-45.569,-0l-10.259,40.081l-36.264,-0l45.092,-166.528l50.579,-0l45.091,166.528l-38.173,-0Zm-32.208,-131.934l-1.908,-0l-16.224,62.984l34.356,0l-16.224,-62.984Z" style="fill:#333;fill-rule:nonzero;"/><path d="M909.744,532.5l-0,137.183l-35.787,-0l-0,-137.183l-47.955,-0l0,-29.345l131.696,-0l-0,29.345l-47.954,-0Z" style="fill:#333;fill-rule:nonzero;"/><path d="M981.556,669.683l-0,-166.528l64.416,-0c8.112,-0 15.349,1.232 21.711,3.698c6.362,2.465 11.73,6.004 16.104,10.616c4.374,4.613 7.674,10.18 9.901,16.701c2.227,6.521 3.34,13.837 3.34,21.949c0,8.112 -1.113,15.428 -3.34,21.949c-2.227,6.522 -5.527,12.088 -9.901,16.701c-4.374,4.613 -9.742,8.151 -16.104,10.617c-6.362,2.465 -13.599,3.698 -21.711,3.698l-28.391,-0l0,60.599l-36.025,-0Zm36.025,-89.467l19.325,-0c8.43,-0 14.275,-1.591 17.536,-4.772c3.26,-3.181 4.891,-8.43 4.891,-15.746l-0,-7.158c-0,-7.316 -1.631,-12.565 -4.891,-15.746c-3.261,-3.181 -9.106,-4.771 -17.536,-4.771l-19.325,-0l0,48.193Z" style="fill:#333;fill-rule:nonzero;"/><path d="M1119.69,503.155l33.64,-0l0,61.792l-2.863,44.614l2.386,-0l50.102,-106.406l33.639,-0l0,166.528l-33.639,-0l-0,-61.792l2.862,-44.614l-2.385,-0l-50.102,106.406l-33.64,-0l0,-166.528Z" style="fill:#333;fill-rule:nonzero;"/><path d="M1264.27,503.155l36.026,-0l-0,67.756l20.995,0l26.721,-67.756l35.548,-0l-23.381,59.406c-2.704,6.68 -5.487,11.531 -8.35,14.553c-2.863,3.022 -6.442,5.01 -10.736,5.965l-0,1.431c4.294,0.954 7.794,2.744 10.497,5.368c2.704,2.625 5.329,7.118 7.874,13.48l14.314,36.98l13.361,-0l-0,29.345l-17.655,-0c-7.476,-0 -13.559,-1.67 -18.251,-5.01c-4.692,-3.34 -8.629,-9.225 -11.81,-17.655l-18.132,-47.239l-20.995,0l-0,69.904l-36.026,-0l0,-166.528Z" style="fill:#333;fill-rule:nonzero;"/><path d="M1460.02,672.546c-22.267,-0 -38.769,-7.515 -49.505,-22.546c-10.736,-15.03 -16.104,-36.224 -16.104,-63.581c-0,-27.357 5.368,-48.551 16.104,-63.582c10.736,-15.03 27.238,-22.545 49.505,-22.545c8.589,-0 16.184,1.153 22.785,3.459c6.6,2.306 12.286,5.527 17.058,9.662c4.772,4.136 8.708,9.146 11.81,15.031c3.101,5.885 5.527,12.486 7.276,19.802l-33.401,8.112c-0.954,-3.977 -2.067,-7.635 -3.34,-10.975c-1.272,-3.34 -2.903,-6.203 -4.891,-8.589c-1.988,-2.386 -4.453,-4.254 -7.396,-5.606c-2.942,-1.352 -6.481,-2.028 -10.616,-2.028c-9.703,-0 -16.582,3.777 -20.638,11.332c-4.055,7.555 -6.083,18.013 -6.083,31.373l-0,29.107c-0,13.361 2.028,23.818 6.083,31.373c4.056,7.555 10.935,11.333 20.638,11.333c8.27,-0 14.275,-2.545 18.012,-7.635c3.738,-5.089 6.482,-11.611 8.231,-19.563l33.401,8.111c-1.749,7.317 -4.175,13.918 -7.276,19.803c-3.102,5.884 -7.038,10.934 -11.81,15.149c-4.772,4.215 -10.458,7.436 -17.058,9.663c-6.601,2.227 -14.196,3.34 -22.785,3.34Z" style="fill:#333;fill-rule:nonzero;"/></g></svg>