<?xml version="1.0" encoding="UTF-8" standalone="no"?><!DOCTYPE svg PUBLIC "-//W3C//DTD SVG 1.1//EN" "http://www.w3.org/Graphics/SVG/1.1/DTD/svg11.dtd"><svg width="100%" height="100%" viewBox="0 0 541 985" version="1.1" xmlns="http://www.w3.org/2000/svg" xmlns:xlink="http://www.w3.org/1999/xlink" xml:space="preserve" xmlns:serif="http://www.serif.com/" style="fill-rule:evenodd;clip-rule:evenodd;stroke-linejoin:round;stroke-miterlimit:2;"><g opacity="0.7"><g><path d="M129.993,343.79c-44.442,0 -77.218,-15.078 -98.328,-45.235c-21.11,-30.157 -31.665,-72.377 -31.665,-126.66c0,-54.283 10.555,-96.502 31.665,-126.659c21.11,-30.157 53.886,-45.236 98.328,-45.236c44.442,0 77.218,15.079 98.327,45.236c21.11,30.157 31.665,72.376 31.665,126.659c0,54.283 -10.555,96.503 -31.665,126.66c-21.109,30.157 -53.885,45.235 -98.327,45.235Zm-0,-56.187c21.268,-0 36.109,-7.46 44.521,-22.38c8.412,-14.92 12.618,-35.712 12.618,-62.377l0,-61.902c0,-26.665 -4.206,-47.457 -12.618,-62.377c-8.412,-14.92 -23.253,-22.38 -44.521,-22.38c-21.269,0 -36.109,7.46 -44.522,22.38c-8.412,14.92 -12.618,35.712 -12.618,62.377l0,61.902c0,26.665 4.206,47.457 12.618,62.377c8.413,14.92 23.253,22.38 44.522,22.38Z" style="fill:#fff;fill-rule:nonzero;"/><path d="M402.834,137.135c18.412,0 31.824,-3.492 40.236,-10.475c8.412,-6.984 12.619,-15.555 12.619,-25.713l-0,-3.333c-0,-12.063 -4.048,-21.666 -12.143,-28.808c-8.094,-7.143 -19.602,-10.714 -34.521,-10.714c-13.651,-0 -26.428,3.412 -38.332,10.237c-11.904,6.825 -21.983,16.587 -30.236,29.285l-45.236,-41.903c6.349,-8.253 13.333,-15.793 20.952,-22.618c7.618,-6.825 16.03,-12.697 25.236,-17.618c9.206,-4.92 19.602,-8.729 31.189,-11.428c11.587,-2.698 24.681,-4.047 39.283,-4.047c18.095,-0 34.443,2.063 49.045,6.19c14.603,4.127 27.062,10.079 37.379,17.856c10.317,7.778 18.332,17.063 24.046,27.856c5.714,10.793 8.571,22.856 8.571,36.188c0,10.476 -1.746,19.999 -5.237,28.57c-3.492,8.571 -8.175,16.031 -14.047,22.38c-5.873,6.349 -12.698,11.507 -20.475,15.475c-7.778,3.968 -16.11,6.746 -24.999,8.333l0,2.857c20.316,3.492 37.22,11.983 50.712,25.475c13.491,13.491 20.237,31.665 20.237,54.52c-0,14.92 -3.096,28.411 -9.286,40.474c-6.19,12.063 -14.919,22.38 -26.189,30.951c-11.269,8.571 -24.919,15.158 -40.95,19.761c-16.031,4.603 -33.887,6.904 -53.568,6.904c-16.825,0 -31.665,-1.746 -44.521,-5.238c-12.857,-3.492 -24.205,-8.174 -34.046,-14.047c-9.841,-5.872 -18.332,-12.697 -25.475,-20.475c-7.142,-7.777 -13.412,-15.792 -18.808,-24.046l52.854,-40.95c7.301,13.65 16.427,24.84 27.379,33.57c10.952,8.729 25.634,13.094 44.045,13.094c17.142,0 30.316,-3.968 39.522,-11.904c9.206,-7.936 13.809,-18.888 13.809,-32.855l-0,-3.333c-0,-13.65 -5.238,-23.888 -15.714,-30.713c-10.475,-6.825 -25.078,-10.237 -43.807,-10.237l-30.95,-0l-0,-59.521l31.426,0Z" style="fill:#fff;fill-rule:nonzero;"/><path d="M129.993,676.622c-44.442,0 -77.218,-15.078 -98.328,-45.235c-21.11,-30.157 -31.665,-72.377 -31.665,-126.66c0,-54.282 10.555,-96.502 31.665,-126.659c21.11,-30.157 53.886,-45.236 98.328,-45.236c44.442,0 77.218,15.079 98.327,45.236c21.11,30.157 31.665,72.377 31.665,126.659c0,54.283 -10.555,96.503 -31.665,126.66c-21.109,30.157 -53.885,45.235 -98.327,45.235Zm-0,-56.187c21.268,-0 36.109,-7.46 44.521,-22.38c8.412,-14.919 12.618,-35.712 12.618,-62.377l0,-61.901c0,-26.666 -4.206,-47.458 -12.618,-62.378c-8.412,-14.92 -23.253,-22.38 -44.521,-22.38c-21.269,0 -36.109,7.46 -44.522,22.38c-8.412,14.92 -12.618,35.712 -12.618,62.378l0,61.901c0,26.665 4.206,47.458 12.618,62.377c8.413,14.92 23.253,22.38 44.522,22.38Z" style="fill:#fff;fill-rule:nonzero;"/><path d="M540.446,464.73c-0,23.49 -3.651,45.552 -10.952,66.186c-7.301,20.634 -16.745,39.76 -28.332,57.378c-11.586,17.618 -24.602,33.411 -39.045,47.378c-14.444,13.968 -28.808,25.713 -43.093,35.236l-98.566,0c20.634,-14.285 39.125,-28.014 55.473,-41.188c16.348,-13.174 30.633,-26.348 42.855,-39.521c12.221,-13.174 22.221,-26.745 29.998,-40.712c7.778,-13.968 13.412,-29.046 16.904,-45.236l-4.285,-1.428c-2.857,6.348 -6.429,12.539 -10.714,18.57c-4.286,6.031 -9.365,11.349 -15.237,15.951c-5.873,4.603 -12.857,8.333 -20.952,11.19c-8.094,2.857 -17.538,4.286 -28.331,4.286c-13.968,-0 -26.983,-2.46 -39.046,-7.381c-12.063,-4.92 -22.459,-11.904 -31.188,-20.951c-8.73,-9.047 -15.635,-19.919 -20.714,-32.617c-5.079,-12.698 -7.618,-26.983 -7.618,-42.855c-0,-16.824 3.016,-32.379 9.047,-46.664c6.031,-14.285 14.523,-26.586 25.475,-36.903c10.951,-10.316 24.205,-18.332 39.759,-24.046c15.555,-5.714 32.856,-8.571 51.902,-8.571c19.999,0 37.855,3.095 53.569,9.285c15.713,6.191 28.966,15.079 39.759,26.666c10.793,11.586 19.047,25.474 24.761,41.664c5.714,16.189 8.571,34.284 8.571,54.283Zm-126.184,33.331c16.19,-0 28.888,-4.365 38.093,-13.095c9.206,-8.729 13.809,-21.348 13.809,-37.855l0,-6.666c0,-16.507 -4.365,-29.284 -13.094,-38.331c-8.73,-9.047 -21.666,-13.571 -38.808,-13.571c-17.142,0 -30.157,4.524 -39.045,13.571c-8.888,9.047 -13.333,21.824 -13.333,38.331l0,6.666c0,16.507 4.524,29.126 13.571,37.855c9.047,8.73 21.983,13.095 38.807,13.095Z" style="fill:#fff;fill-rule:nonzero;"/></g><g><path d="M23.505,882.324l0,-36.57l56.82,0l-0,-141.443l-2.72,0l-42.917,56.215l-29.014,-22.667l50.472,-66.491l69.513,0l-0,174.386l44.73,0l-0,36.57l-146.884,0Z" style="fill:#333;fill-rule:nonzero;"/><path d="M278.889,882.324l0,-40.499l-94.9,0l0,-38.685l84.02,-131.772l54.401,0l0,135.399l27.201,-0l-0,35.058l-27.201,0l0,40.499l-43.521,0Zm-58.33,-75.557l58.33,-0l0,-88.553l-2.72,-0l-55.61,88.553Z" style="fill:#333;fill-rule:nonzero;"/><path d="M475.036,807.976l-1.511,-0c-4.634,1.813 -10.024,3.375 -16.169,4.684c-6.146,1.31 -12.845,1.965 -20.099,1.965c-11.887,-0 -22.163,-1.36 -30.827,-4.08c-8.664,-2.72 -15.766,-7.052 -21.307,-12.996c-5.541,-5.944 -9.621,-13.752 -12.24,-23.423c-2.62,-9.671 -3.929,-21.458 -3.929,-35.361l-0,-67.397l45.636,0l0,68.606c0,14.507 2.317,24.481 6.952,29.921c4.634,5.44 12.391,8.16 23.271,8.16c6.045,0 11.535,-0.453 16.472,-1.36c4.936,-0.907 9.52,-2.166 13.751,-3.778l0,-101.549l45.637,0l-0,210.956l-45.637,0l0,-74.348Z" style="fill:#333;fill-rule:nonzero;"/></g><g><path d="M62.626,984.696c-13.6,-0 -23.68,-4.59 -30.237,-13.771c-6.557,-9.18 -9.836,-22.125 -9.836,-38.835c-0,-16.709 3.279,-29.654 9.836,-38.834c6.557,-9.181 16.637,-13.771 30.237,-13.771c5.246,0 9.885,0.704 13.917,2.113c4.031,1.409 7.504,3.376 10.419,5.902c2.914,2.526 5.318,5.586 7.213,9.18c1.894,3.595 3.376,7.626 4.444,12.095l-20.401,4.955c-0.583,-2.429 -1.263,-4.664 -2.04,-6.704c-0.777,-2.04 -1.773,-3.788 -2.987,-5.246c-1.214,-1.457 -2.72,-2.598 -4.517,-3.424c-1.798,-0.826 -3.959,-1.239 -6.485,-1.239c-5.926,0 -10.128,2.308 -12.605,6.922c-2.477,4.615 -3.716,11.002 -3.716,19.162l0,17.778c0,8.161 1.239,14.548 3.716,19.163c2.477,4.614 6.679,6.921 12.605,6.921c5.052,0 8.719,-1.554 11.002,-4.663c2.283,-3.108 3.959,-7.091 5.027,-11.949l20.401,4.955c-1.068,4.469 -2.55,8.5 -4.444,12.095c-1.895,3.594 -4.299,6.679 -7.213,9.253c-2.915,2.574 -6.388,4.542 -10.419,5.902c-4.032,1.36 -8.671,2.04 -13.917,2.04Z" style="fill:#fff;fill-rule:nonzero;"/><path d="M119.895,965.023l17.195,0l2.768,-6.994l-33.516,-76.795l23.17,-0l14.864,36.139l5.391,17.486l0.438,0l4.663,-17.486l12.823,-36.139l22.15,-0l-31.768,83.789c-1.262,3.401 -2.647,6.242 -4.153,8.525c-1.505,2.283 -3.181,4.129 -5.027,5.537c-1.846,1.409 -3.959,2.405 -6.339,2.988c-2.38,0.583 -5.076,0.874 -8.087,0.874l-14.572,0l-0,-17.924Z" style="fill:#fff;fill-rule:nonzero;"/><path d="M200.77,881.234l63.097,-0l0,17.923l-41.093,0l-0,21.713l20.109,-0c4.76,-0 9.035,0.753 12.824,2.259c3.788,1.505 7.019,3.594 9.69,6.266c2.672,2.671 4.736,5.901 6.193,9.69c1.457,3.789 2.186,7.966 2.186,12.532c0,4.566 -0.729,8.743 -2.186,12.532c-1.457,3.789 -3.521,7.092 -6.193,9.909c-2.671,2.817 -5.902,5.003 -9.69,6.558c-3.789,1.554 -8.064,2.331 -12.824,2.331l-42.113,0l-0,-101.713Zm38.033,84.518c8.063,-0 12.095,-3.594 12.095,-10.783l-0,-6.121c-0,-7.189 -4.032,-10.783 -12.095,-10.783l-16.029,-0l-0,27.687l16.029,-0Z" style="fill:#fff;fill-rule:nonzero;"/><path d="M322.593,984.696c-13.601,-0 -23.631,-4.615 -30.092,-13.844c-6.46,-9.229 -9.69,-22.149 -9.69,-38.762c-0,-16.612 3.23,-29.532 9.69,-38.761c6.461,-9.229 16.491,-13.844 30.092,-13.844c13.6,0 23.631,4.615 30.091,13.844c6.46,9.229 9.69,22.149 9.69,38.761c0,16.613 -3.23,29.533 -9.69,38.762c-6.46,9.229 -16.491,13.844 -30.091,13.844Zm-0,-17.633c6.217,0 10.516,-2.307 12.896,-6.921c2.38,-4.615 3.57,-11.051 3.57,-19.308l0,-17.633c0,-8.16 -1.19,-14.547 -3.57,-19.162c-2.38,-4.614 -6.679,-6.922 -12.896,-6.922c-6.218,0 -10.517,2.308 -12.897,6.922c-2.38,4.615 -3.57,11.002 -3.57,19.162l0,17.778c0,8.161 1.19,14.548 3.57,19.163c2.38,4.614 6.679,6.921 12.897,6.921Z" style="fill:#fff;fill-rule:nonzero;"/><path d="M420.954,899.157l0,83.79l-21.858,0l0,-83.79l-29.29,0l0,-17.923l80.438,-0l0,17.923l-29.29,0Z" style="fill:#fff;fill-rule:nonzero;"/><path d="M517.13,982.947l-6.411,-24.481l-27.833,-0l-6.266,24.481l-22.15,0l27.541,-101.713l30.893,-0l27.542,101.713l-23.316,0Zm-19.672,-80.584l-1.166,0l-9.909,38.471l20.984,-0l-9.909,-38.471Z" style="fill:#fff;fill-rule:nonzero;"/></g></g></svg>