<?xml version="1.0" encoding="UTF-8" standalone="no"?><!DOCTYPE svg PUBLIC "-//W3C//DTD SVG 1.1//EN" "http://www.w3.org/Graphics/SVG/1.1/DTD/svg11.dtd"><svg width="100%" height="100%" viewBox="0 0 760 207" version="1.1" xmlns="http://www.w3.org/2000/svg" xmlns:xlink="http://www.w3.org/1999/xlink" xml:space="preserve" xmlns:serif="http://www.serif.com/" style="fill-rule:evenodd;clip-rule:evenodd;stroke-linejoin:round;stroke-miterlimit:2;"><g opacity="0.7"><g><path d="M0,84.107l7.116,0c1.613,-1.815 3.131,-4.179 4.554,-7.092c1.423,-2.914 2.633,-6.591 3.629,-11.033c0.996,-4.442 1.779,-9.696 2.348,-15.761c0.57,-6.066 0.854,-13.111 0.854,-21.134l0,-27.368l53.37,0l-0,82.388l9.535,0l-0,39.117l-19.64,-0l0,-21.493l-42.126,0l-0,21.493l-19.64,-0l-0,-39.117Zm51.235,-65.337l-14.09,0l0,13.469c0,7.068 -0.213,13.349 -0.64,18.842c-0.427,5.492 -1.02,10.316 -1.779,14.471c-0.759,4.155 -1.684,7.761 -2.776,10.818c-1.091,3.057 -2.3,5.636 -3.629,7.737l22.914,0l-0,-65.337Z" style="fill:#333;fill-rule:nonzero;"/><path d="M95.211,101.731l-0,-100.012l63.474,0l-0,17.624l-42.126,0l-0,22.926l40.703,-0l-0,17.623l-40.703,0l-0,24.215l42.126,0l-0,17.624l-63.474,0Z" style="fill:#333;fill-rule:nonzero;"/><path d="M180.175,1.719l34.868,0c9.772,0 17.244,2.388 22.415,7.165c5.171,4.776 7.756,11.271 7.756,19.486c0,5.731 -1.399,10.293 -4.198,13.684c-2.799,3.391 -6.808,5.85 -12.026,7.379l-0,0.859c6.167,1.529 10.935,4.203 14.303,8.024c3.368,3.821 5.052,9.123 5.052,15.905c0,8.406 -2.633,15.092 -7.899,20.059c-5.265,4.968 -12.642,7.451 -22.13,7.451l-38.141,0l-0,-100.012Zm31.594,84.967c5.124,0 8.872,-0.859 11.244,-2.579c2.371,-1.719 3.557,-4.871 3.557,-9.456l0,-4.156c0,-4.585 -1.186,-7.737 -3.557,-9.456c-2.372,-1.72 -6.12,-2.579 -11.244,-2.579l-10.816,-0l0,28.226l10.816,0Zm-2.704,-42.555c5.029,0 8.682,-0.836 10.959,-2.507c2.277,-1.672 3.415,-4.705 3.415,-9.099l0,-4.298c0,-4.394 -1.138,-7.403 -3.415,-9.027c-2.277,-1.624 -5.93,-2.436 -10.959,-2.436l-8.112,0l0,27.367l8.112,0Z" style="fill:#333;fill-rule:nonzero;"/><path d="M297.303,103.451c-13.283,-0 -23.08,-4.538 -29.389,-13.612c-6.31,-9.075 -9.464,-21.779 -9.464,-38.114c-0,-16.334 3.154,-29.038 9.464,-38.113c6.309,-9.075 16.106,-13.612 29.389,-13.612c13.283,-0 23.079,4.537 29.388,13.612c6.31,9.075 9.464,21.779 9.464,38.113c0,16.335 -3.154,29.039 -9.464,38.114c-6.309,9.074 -16.105,13.612 -29.388,13.612Zm-0,-17.338c6.072,0 10.27,-2.268 12.595,-6.806c2.324,-4.537 3.487,-10.865 3.487,-18.985l-0,-17.337c-0,-8.024 -1.163,-14.304 -3.487,-18.842c-2.325,-4.537 -6.523,-6.806 -12.595,-6.806c-6.073,0 -10.271,2.269 -12.596,6.806c-2.324,4.538 -3.486,10.818 -3.486,18.842l-0,17.481c-0,8.023 1.162,14.304 3.486,18.841c2.325,4.538 6.523,6.806 12.596,6.806Z" style="fill:#333;fill-rule:nonzero;"/><path d="M412.723,1.719l-0,72.072c-0,4.489 -0.783,8.573 -2.349,12.251c-1.565,3.677 -3.795,6.806 -6.689,9.385c-2.893,2.579 -6.38,4.561 -10.46,5.946c-4.08,1.385 -8.634,2.078 -13.663,2.078c-10.152,-0 -18.003,-2.556 -23.553,-7.666c-5.551,-5.111 -9.085,-11.821 -10.603,-20.131l20.209,-4.156c0.759,4.299 2.206,7.785 4.341,10.46c2.135,2.675 5.337,4.012 9.606,4.012c3.606,-0 6.429,-1.17 8.468,-3.51c2.04,-2.341 3.06,-5.947 3.06,-10.818l0,-52.299l-32.733,0l0,-17.624l54.366,0Z" style="fill:#333;fill-rule:nonzero;"/><path d="M487.297,101.731l-6.262,-24.071l-27.182,-0l-6.12,24.071l-21.632,0l26.898,-100.012l30.171,0l26.898,100.012l-22.771,0Zm-19.213,-79.236l-1.138,0l-9.678,37.827l20.494,0l-9.678,-37.827Z" style="fill:#333;fill-rule:nonzero;"/><path d="M565.999,66.483l-0.711,0c-2.183,0.86 -4.721,1.6 -7.614,2.221c-2.894,0.621 -6.049,0.932 -9.465,0.932c-5.597,-0 -10.436,-0.645 -14.516,-1.935c-4.08,-1.289 -7.424,-3.343 -10.033,-6.161c-2.61,-2.818 -4.531,-6.519 -5.764,-11.104c-1.234,-4.585 -1.85,-10.173 -1.85,-16.764l-0,-31.953l21.49,0l-0,32.526c-0,6.877 1.091,11.606 3.273,14.185c2.182,2.579 5.835,3.868 10.958,3.868c2.847,0 5.432,-0.215 7.757,-0.644c2.324,-0.43 4.483,-1.027 6.475,-1.791l0,-48.144l21.49,0l0,100.012l-21.49,0l0,-35.248Z" style="fill:#333;fill-rule:nonzero;"/><path d="M604.852,1.719l21.49,0l0,40.693l12.524,-0l15.94,-40.693l21.205,0l-13.947,35.678c-1.613,4.012 -3.273,6.925 -4.981,8.74c-1.708,1.815 -3.843,3.009 -6.404,3.582l-0,0.86c2.561,0.573 4.649,1.648 6.262,3.224c1.612,1.576 3.178,4.275 4.696,8.095l8.539,22.209l7.97,0l-0,17.624l-10.532,0c-4.459,0 -8.088,-1.003 -10.887,-3.009c-2.799,-2.006 -5.147,-5.54 -7.045,-10.603l-10.816,-28.37l-12.524,0l0,41.982l-21.49,0l0,-100.012Z" style="fill:#333;fill-rule:nonzero;"/><path d="M689.389,1.719l20.067,0l-0,37.111l-1.708,26.794l1.423,-0l29.887,-63.905l20.067,0l-0,100.012l-20.067,0l0,-37.11l1.708,-26.794l-1.423,-0l-29.887,63.904l-20.067,0l0,-100.012Z" style="fill:#333;fill-rule:nonzero;"/></g><g><path d="M436.774,101.386l21.49,-0l0,40.692l12.524,0l15.94,-40.692l21.205,-0l-13.947,35.677c-1.613,4.012 -3.273,6.926 -4.981,8.74c-1.708,1.815 -3.842,3.009 -6.404,3.583l-0,0.859c2.562,0.573 4.649,1.648 6.262,3.224c1.613,1.576 3.178,4.275 4.696,8.096l8.539,22.209l7.97,-0l0,17.623l-10.531,0c-4.46,0 -8.089,-1.003 -10.888,-3.009c-2.799,-2.006 -5.147,-5.54 -7.044,-10.603l-10.817,-28.37l-12.524,0l0,41.982l-21.49,0l0,-100.011Z" style="fill:#333;fill-rule:nonzero;"/><path d="M575.392,201.397l-6.262,-24.071l-27.183,-0l-6.119,24.071l-21.633,0l26.899,-100.011l30.171,-0l26.898,100.011l-22.771,0Zm-19.213,-79.235l-1.138,-0l-9.678,37.826l20.494,0l-9.678,-37.826Z" style="fill:#333;fill-rule:nonzero;"/><path d="M631.039,194.376c-9.298,-1.146 -16.414,-5.182 -21.348,-12.107c-4.934,-6.925 -7.401,-17.17 -7.401,-30.734c0,-13.373 2.491,-23.57 7.472,-30.591c4.981,-7.021 12.073,-11.105 21.277,-12.251l-0,-11.892l21.063,-0l-0,11.892c9.298,1.146 16.414,5.182 21.347,12.108c4.934,6.925 7.401,17.17 7.401,30.734c-0,13.373 -2.491,23.57 -7.472,30.591c-4.981,7.021 -12.073,11.104 -21.276,12.25l-0,11.893l-21.063,0l-0,-11.893Zm1.423,-70.638c-7.59,0.86 -11.386,6.925 -11.386,18.197l0,19.2c0,11.271 3.796,17.337 11.386,18.197l-0,-55.594Zm18.217,55.594c7.59,-0.86 11.385,-6.926 11.385,-18.197l-0,-19.2c-0,-11.272 -3.795,-17.337 -11.385,-18.197l-0,55.594Z" style="fill:#333;fill-rule:nonzero;"/><path d="M695.651,201.397l0,-100.011l63.474,-0l-0,17.623l-42.126,0l-0,22.926l40.703,-0l-0,17.624l-40.703,-0l-0,24.215l42.126,-0l-0,17.623l-63.474,0Z" style="fill:#333;fill-rule:nonzero;"/></g></g></svg>