<?xml version="1.0" encoding="UTF-8" standalone="no"?><!DOCTYPE svg PUBLIC "-//W3C//DTD SVG 1.1//EN" "http://www.w3.org/Graphics/SVG/1.1/DTD/svg11.dtd"><svg width="100%" height="100%" viewBox="0 0 520 873" version="1.1" xmlns="http://www.w3.org/2000/svg" xmlns:xlink="http://www.w3.org/1999/xlink" xml:space="preserve" xmlns:serif="http://www.serif.com/" style="fill-rule:evenodd;clip-rule:evenodd;stroke-linejoin:round;stroke-miterlimit:2;"><g opacity="0.7"><g><path d="M32.132,732.425l20.165,0l3.247,-8.203l-39.304,-90.057l27.171,0l17.43,42.38l6.323,20.506l0.513,0l5.468,-20.506l15.038,-42.38l25.975,0l-37.254,98.26c-1.481,3.987 -3.104,7.32 -4.87,9.997c-1.766,2.677 -3.731,4.842 -5.895,6.494c-2.165,1.652 -4.643,2.819 -7.434,3.503c-2.791,0.683 -5.953,1.025 -9.484,1.025l-17.089,0l0,-21.019Z" style="fill:#333;fill-rule:nonzero;"/><path d="M129.025,753.444l-0,-119.279l46.139,0c5.811,0 10.994,0.883 15.551,2.649c4.557,1.766 8.402,4.3 11.535,7.604c3.133,3.304 5.497,7.291 7.092,11.962c1.595,4.671 2.392,9.912 2.392,15.722c0,5.81 -0.797,11.051 -2.392,15.722c-1.595,4.67 -3.959,8.658 -7.092,11.962c-3.133,3.303 -6.978,5.838 -11.535,7.604c-4.557,1.766 -9.74,2.649 -15.551,2.649l-20.335,-0l-0,43.405l-25.804,0Zm25.804,-64.082l13.842,-0c6.038,-0 10.224,-1.14 12.56,-3.418c2.335,-2.279 3.503,-6.038 3.503,-11.279l0,-5.126c0,-5.241 -1.168,-9 -3.503,-11.279c-2.336,-2.278 -6.522,-3.418 -12.56,-3.418l-13.842,0l-0,34.52Z" style="fill:#333;fill-rule:nonzero;"/><path d="M229.507,634.165l73.994,0l-0,21.019l-48.191,0l0,25.462l23.583,0c5.582,0 10.595,0.883 15.038,2.649c4.443,1.766 8.231,4.215 11.364,7.348c3.133,3.133 5.554,6.921 7.263,11.364c1.708,4.443 2.563,9.342 2.563,14.696c-0,5.355 -0.855,10.254 -2.563,14.697c-1.709,4.443 -4.13,8.316 -7.263,11.62c-3.133,3.304 -6.921,5.867 -11.364,7.69c-4.443,1.823 -9.456,2.734 -15.038,2.734l-49.386,0l-0,-119.279Zm44.601,99.114c9.456,0 14.184,-4.215 14.184,-12.645l-0,-7.177c-0,-8.431 -4.728,-12.646 -14.184,-12.646l-18.798,-0l0,32.468l18.798,0Z" style="fill:#333;fill-rule:nonzero;"/><path d="M395.438,753.444l-7.519,-28.709l-32.64,0l-7.348,28.709l-25.975,0l32.298,-119.279l36.228,0l32.298,119.279l-27.342,0Zm-23.07,-94.5l-1.367,-0l-11.62,45.114l24.607,-0l-11.62,-45.114Z" style="fill:#333;fill-rule:nonzero;"/><path d="M489.938,703.545l-30.076,0l0,49.899l-25.804,0l0,-119.279l25.804,0l0,48.361l30.076,0l0,-48.361l25.804,0l0,119.279l-25.804,0l0,-49.899Z" style="fill:#333;fill-rule:nonzero;"/></g><g><path d="M16.24,753.444l73.994,0l-0,21.019l-48.19,0l-0,25.462l23.582,0c5.582,0 10.595,0.883 15.038,2.649c4.443,1.766 8.231,4.215 11.364,7.348c3.133,3.133 5.554,6.921 7.263,11.364c1.709,4.443 2.563,9.342 2.563,14.697c-0,5.354 -0.854,10.253 -2.563,14.696c-1.709,4.443 -4.13,8.316 -7.263,11.62c-3.133,3.304 -6.921,5.867 -11.364,7.69c-4.443,1.823 -9.456,2.734 -15.038,2.734l-49.386,0l-0,-119.279Zm44.601,99.115c9.456,-0 14.184,-4.216 14.184,-12.646l-0,-7.177c-0,-8.431 -4.728,-12.646 -14.184,-12.646l-18.797,0l-0,32.469l18.797,-0Z" style="fill:#333;fill-rule:nonzero;"/><path d="M126.462,851.704l20.164,0l3.247,-8.202l-39.304,-90.058l27.171,0l17.431,42.38l6.323,20.507l0.512,-0l5.469,-20.507l15.038,-42.38l25.974,0l-37.253,98.26c-1.481,3.988 -3.104,7.32 -4.87,9.997c-1.766,2.677 -3.731,4.842 -5.896,6.494c-2.164,1.652 -4.642,2.819 -7.433,3.503c-2.792,0.683 -5.953,1.025 -9.485,1.025l-17.088,0l-0,-21.019Z" style="fill:#333;fill-rule:nonzero;"/><path d="M276.671,822.824l-30.076,0l0,49.899l-25.804,0l0,-119.279l25.804,0l0,48.361l30.076,0l0,-48.361l25.804,0l0,119.279l-25.804,0l0,-49.899Z" style="fill:#333;fill-rule:nonzero;"/><path d="M387.235,872.723l-7.519,-28.709l-32.639,0l-7.348,28.709l-25.975,0l32.297,-119.279l36.228,0l32.298,119.279l-27.342,0Zm-23.07,-94.5l-1.367,-0l-11.62,45.114l24.608,-0l-11.621,-45.114Z" style="fill:#333;fill-rule:nonzero;"/><path d="M428.419,872.723l-0,-119.279l46.139,0c5.811,0 10.994,0.883 15.551,2.649c4.557,1.766 8.402,4.301 11.535,7.604c3.133,3.304 5.497,7.292 7.092,11.962c1.595,4.671 2.392,9.912 2.392,15.722c0,5.81 -0.797,11.051 -2.392,15.722c-1.595,4.671 -3.959,8.658 -7.092,11.962c-3.133,3.304 -6.978,5.838 -11.535,7.604c-4.557,1.766 -9.74,2.649 -15.551,2.649l-20.335,-0l-0,43.405l-25.804,0Zm25.804,-64.082l13.842,-0c6.038,-0 10.224,-1.14 12.56,-3.418c2.335,-2.279 3.503,-6.038 3.503,-11.279l0,-5.126c0,-5.241 -1.168,-9 -3.503,-11.279c-2.336,-2.278 -6.522,-3.418 -12.56,-3.418l-13.842,0l-0,34.52Z" style="fill:#333;fill-rule:nonzero;"/></g></g><g opacity="0.7"><path d="M42.046,259.964l53.349,-0l8.591,-21.701l-103.986,-238.263l71.886,0l46.115,112.124l16.728,54.253l1.356,-0l14.468,-54.253l39.786,-112.124l68.721,0l-98.561,259.964c-3.918,10.549 -8.213,19.365 -12.885,26.448c-4.672,7.083 -9.871,12.81 -15.598,17.181c-5.726,4.37 -12.282,7.459 -19.666,9.268c-7.385,1.808 -15.749,2.713 -25.093,2.713l-45.211,-0l0,-55.61Z" style="fill:#fff;fill-rule:nonzero;"/><path d="M292.968,0l195.764,0l0,55.61l-127.495,-0l-0,67.364l62.391,0c14.769,0 28.031,2.336 39.786,7.008c11.755,4.672 21.777,11.152 30.065,19.441c8.289,8.288 14.694,18.31 19.215,30.065c4.521,11.755 6.782,24.715 6.782,38.882c-0,14.166 -2.261,27.126 -6.782,38.881c-4.521,11.755 -10.926,22.003 -19.215,30.744c-8.288,8.741 -18.31,15.522 -30.065,20.345c-11.755,4.822 -25.017,7.234 -39.786,7.234l-130.66,-0l-0,-315.574Zm118.001,262.224c25.017,0 37.525,-11.152 37.525,-33.456l0,-18.988c0,-22.305 -12.508,-33.457 -37.525,-33.457l-49.732,0l-0,85.901l49.732,0Z" style="fill:#fff;fill-rule:nonzero;"/><path d="M243.688,634.165l-226.96,0l0,-61.939l99.465,-82.736c17.18,-14.769 29.537,-27.579 37.073,-38.43c7.535,-10.851 11.302,-22.304 11.302,-34.36l0,-4.521c0,-13.262 -3.918,-23.284 -11.754,-30.066c-7.837,-6.782 -18.386,-10.172 -31.648,-10.172c-15.071,-0 -26.675,4.37 -34.813,13.111c-8.138,8.741 -13.865,19.139 -17.18,31.196l-59.227,-22.606c3.617,-10.851 8.591,-21.174 14.92,-30.97c6.33,-9.795 14.392,-18.31 24.188,-25.544c9.796,-7.234 21.174,-13.036 34.134,-17.406c12.961,-4.371 27.881,-6.556 44.759,-6.556c17.181,0 32.552,2.411 46.116,7.234c13.563,4.822 25.017,11.453 34.36,19.893c9.344,8.439 16.427,18.461 21.249,30.065c4.823,11.604 7.234,24.188 7.234,37.752c0,13.261 -2.185,25.393 -6.555,36.394c-4.371,11.002 -10.399,21.325 -18.085,30.97c-7.686,9.645 -16.728,18.989 -27.127,28.031c-10.398,9.042 -21.475,18.084 -33.23,27.127l-60.13,46.567l151.909,0l-0,56.966Z" style="fill:#fff;fill-rule:nonzero;"/><path d="M514.954,634.165l-226.959,0l-0,-61.939l99.464,-82.736c17.18,-14.769 29.538,-27.579 37.073,-38.43c7.535,-10.851 11.303,-22.304 11.303,-34.36l0,-4.521c0,-13.262 -3.918,-23.284 -11.755,-30.066c-7.836,-6.782 -18.386,-10.172 -31.648,-10.172c-15.07,-0 -26.674,4.37 -34.812,13.111c-8.138,8.741 -13.865,19.139 -17.18,31.196l-59.227,-22.606c3.617,-10.851 8.59,-21.174 14.92,-30.97c6.329,-9.795 14.392,-18.31 24.188,-25.544c9.795,-7.234 21.174,-13.036 34.134,-17.406c12.961,-4.371 27.88,-6.556 44.759,-6.556c17.18,0 32.552,2.411 46.115,7.234c13.564,4.822 25.017,11.453 34.361,19.893c9.343,8.439 16.427,18.461 21.249,30.065c4.823,11.604 7.234,24.188 7.234,37.752c-0,13.261 -2.185,25.393 -6.556,36.394c-4.37,11.002 -10.398,21.325 -18.084,30.97c-7.686,9.645 -16.728,18.989 -27.127,28.031c-10.398,9.042 -21.475,18.084 -33.23,27.127l-60.131,46.567l151.909,0l0,56.966Z" style="fill:#fff;fill-rule:nonzero;"/></g></svg>