<?xml version="1.0" encoding="UTF-8" standalone="no"?><!DOCTYPE svg PUBLIC "-//W3C//DTD SVG 1.1//EN" "http://www.w3.org/Graphics/SVG/1.1/DTD/svg11.dtd"><svg width="100%" height="100%" viewBox="0 0 761 189" version="1.1" xmlns="http://www.w3.org/2000/svg" xmlns:xlink="http://www.w3.org/1999/xlink" xml:space="preserve" xmlns:serif="http://www.serif.com/" style="fill-rule:evenodd;clip-rule:evenodd;stroke-linejoin:round;stroke-miterlimit:2;"><g opacity="0.7"><path d="M0,3.132l124.765,0l-0,182.188l-39.413,0l-0,-150.083l-45.939,-0l0,150.083l-39.413,0l0,-182.188Z" style="fill:#333;fill-rule:nonzero;"/><path d="M161.568,185.32l-0,-182.188l116.412,0l0,32.105l-77.26,-0l0,41.762l74.65,0l0,32.105l-74.65,0l0,44.111l77.26,0l0,32.105l-116.412,0Z" style="fill:#333;fill-rule:nonzero;"/><path d="M379.776,188.452c-24.361,0 -42.415,-8.222 -54.161,-24.665c-11.745,-16.444 -17.618,-39.631 -17.618,-69.561c-0,-29.929 5.873,-53.116 17.618,-69.56c11.746,-16.444 29.8,-24.666 54.161,-24.666c9.396,0 17.705,1.262 24.927,3.785c7.221,2.523 13.442,6.047 18.662,10.571c5.221,4.524 9.527,10.005 12.921,16.444c3.393,6.438 6.046,13.659 7.96,21.664l-36.542,8.874c-1.044,-4.35 -2.262,-8.352 -3.654,-12.006c-1.392,-3.654 -3.175,-6.787 -5.351,-9.397c-2.175,-2.61 -4.872,-4.655 -8.091,-6.134c-3.219,-1.479 -7.091,-2.218 -11.615,-2.218c-10.615,-0 -18.141,4.132 -22.578,12.398c-4.437,8.265 -6.656,19.707 -6.656,34.323l0,31.844c0,14.617 2.219,26.058 6.656,34.323c4.437,8.266 11.963,12.399 22.578,12.399c9.048,-0 15.617,-2.785 19.706,-8.353c4.09,-5.568 7.091,-12.703 9.005,-21.403l36.542,8.874c-1.914,8.005 -4.567,15.226 -7.96,21.665c-3.394,6.438 -7.7,11.963 -12.921,16.574c-5.22,4.611 -11.441,8.135 -18.662,10.571c-7.222,2.436 -15.531,3.654 -24.927,3.654Z" style="fill:#333;fill-rule:nonzero;"/><path d="M567.445,185.32l-11.484,-43.85l-49.854,-0l-11.224,43.85l-39.674,0l49.332,-182.188l55.335,0l49.332,182.188l-41.763,0Zm-35.237,-144.341l-2.088,0l-17.749,68.908l37.586,0l-17.749,-68.908Z" style="fill:#333;fill-rule:nonzero;"/><path d="M626.434,3.132l39.414,0l-0,74.128l22.969,0l29.234,-74.128l38.891,0l-25.58,64.993c-2.958,7.308 -6.003,12.615 -9.135,15.922c-3.132,3.306 -7.048,5.481 -11.746,6.525l0,1.566c4.698,1.044 8.527,3.002 11.485,5.873c2.958,2.871 5.829,7.787 8.613,14.747l15.661,40.457l14.617,0l-0,32.105l-19.315,0c-8.179,0 -14.834,-1.827 -19.968,-5.481c-5.133,-3.654 -9.44,-10.093 -12.92,-19.315l-19.837,-51.681l-22.969,-0l-0,76.477l-39.414,0l0,-182.188Z" style="fill:#333;fill-rule:nonzero;"/></g></svg>