<?xml version="1.0" encoding="UTF-8" standalone="no"?><!DOCTYPE svg PUBLIC "-//W3C//DTD SVG 1.1//EN" "http://www.w3.org/Graphics/SVG/1.1/DTD/svg11.dtd"><svg width="100%" height="100%" viewBox="0 0 3508 4492" version="1.1" xmlns="http://www.w3.org/2000/svg" xmlns:xlink="http://www.w3.org/1999/xlink" xml:space="preserve" xmlns:serif="http://www.serif.com/" style="fill-rule:evenodd;clip-rule:evenodd;stroke-linejoin:round;stroke-miterlimit:2;"><rect id="Artboard1" x="0" y="0" width="3507.87" height="4491.74" style="fill:none;"/><clipPath id="_clip1"><rect x="0" y="0" width="3507.87" height="4491.74"/></clipPath><g clip-path="url(#_clip1)"><path d="M283.927,1755.57l360.252,0l58.006,-146.543l-702.185,-1608.92l485.424,-0l311.404,757.139l112.96,366.358l9.159,-0l97.695,-366.358l268.663,-757.139l464.053,-0l-665.55,1755.46c-26.459,71.237 -55.463,130.77 -87.01,178.6c-31.547,47.83 -66.657,86.501 -105.328,116.013c-38.671,29.512 -82.939,50.374 -132.804,62.586c-49.866,12.212 -106.346,18.318 -169.441,18.318l-305.298,0l0,-375.517Z" style="fill:#004085;fill-rule:nonzero;"/><path d="M1978.33,0.108l1321.94,-0l0,375.517l-860.94,-0l0,454.894l421.311,-0c99.731,-0 189.285,15.773 268.662,47.321c79.378,31.547 147.052,75.307 203.024,131.278c55.971,55.971 99.222,123.646 129.751,203.023c30.53,79.378 45.795,166.896 45.795,262.556c0,95.66 -15.265,183.179 -45.795,262.557c-30.529,79.377 -73.78,148.578 -129.751,207.602c-55.972,59.025 -123.646,104.819 -203.024,137.384c-79.377,32.565 -168.931,48.848 -268.662,48.848l-882.311,0l0,-2130.98Zm796.828,1770.73c168.931,0 253.397,-75.306 253.397,-225.92l0,-128.225c0,-150.614 -84.466,-225.921 -253.397,-225.921l-335.828,0l0,580.066l335.828,0Z" style="fill:#004085;fill-rule:nonzero;"/><path d="M1645.56,4485.03l-1532.6,-0l0,-418.259l671.656,-558.695c116.013,-99.731 199.461,-186.232 250.344,-259.503c50.883,-73.272 76.325,-150.614 76.325,-232.027l-0,-30.53c-0,-89.554 -26.459,-157.228 -79.378,-203.023c-52.918,-45.795 -124.154,-68.692 -213.708,-68.692c-101.766,0 -180.126,29.512 -235.08,88.537c-54.953,59.024 -93.625,129.242 -116.013,210.655l-399.94,-152.649c24.423,-73.271 58.006,-142.981 100.748,-209.129c42.742,-66.148 97.186,-123.646 163.334,-172.493c66.148,-48.848 142.982,-88.028 230.5,-117.54c87.519,-29.512 188.267,-44.268 302.245,-44.268c116.014,-0 219.815,16.282 311.404,48.847c91.59,32.566 168.932,77.343 232.027,134.332c63.095,56.988 110.925,124.663 143.49,203.023c32.565,78.36 48.848,163.334 48.848,254.924c-0,89.554 -14.757,171.475 -44.269,245.764c-29.512,74.29 -70.218,143.999 -122.119,209.13c-51.901,65.13 -112.96,128.225 -183.179,189.284c-70.218,61.06 -145.016,122.12 -224.394,183.179l-406.046,314.457l1025.8,0l0,384.676Z" style="fill:#004085;fill-rule:nonzero;"/><path d="M3477.34,4485.03l-1532.6,-0l0,-418.259l671.656,-558.695c116.013,-99.731 199.461,-186.232 250.344,-259.503c50.883,-73.272 76.325,-150.614 76.325,-232.027l-0,-30.53c-0,-89.554 -26.459,-157.228 -79.378,-203.023c-52.918,-45.795 -124.154,-68.692 -213.708,-68.692c-101.766,0 -180.126,29.512 -235.08,88.537c-54.953,59.024 -93.625,129.242 -116.013,210.655l-399.94,-152.649c24.423,-73.271 58.006,-142.981 100.748,-209.129c42.742,-66.148 97.186,-123.646 163.334,-172.493c66.148,-48.848 142.982,-88.028 230.5,-117.54c87.519,-29.512 188.267,-44.268 302.245,-44.268c116.014,-0 219.815,16.282 311.404,48.847c91.59,32.566 168.932,77.343 232.027,134.332c63.095,56.988 110.925,124.663 143.49,203.023c32.565,78.36 48.848,163.334 48.848,254.924c-0,89.554 -14.757,171.475 -44.269,245.764c-29.512,74.29 -70.218,143.999 -122.119,209.13c-51.901,65.13 -112.96,128.225 -183.179,189.284c-70.218,61.06 -145.016,122.12 -224.394,183.179l-406.046,314.457l1025.8,0l0,384.676Z" style="fill:#004085;fill-rule:nonzero;"/></g></svg>